<svg width="190" height="63" viewBox="0 0 190 63" fill="none" xmlns="http://www.w3.org/2000/svg">
<path d="M35.2453 46.7358C35.1116 46.9145 34.8751 47.1727 34.5356 47.5104C34.212 47.8358 33.8682 48.1391 33.5041 48.4202C33.14 48.7013 32.7885 48.9224 32.4496 49.0834C32.14 49.2469 31.8295 49.3355 31.5181 49.3493C31.2067 49.3631 30.8956 49.2886 30.5847 49.1257C30.2739 48.9629 29.9431 48.6895 29.5923 48.3056L26.4351 44.851L21.876 48.3713L26.5308 53.4647C26.3972 53.6434 26.1606 53.9016 25.8212 54.2393C25.4976 54.5647 25.1537 54.868 24.7896 55.1491C24.4255 55.4303 24.074 55.6513 23.7351 55.8123C23.4255 55.9758 23.1151 56.0644 22.8037 56.0783C22.4923 56.0921 22.1811 56.0175 21.8703 55.8547C21.5594 55.6918 21.2286 55.4184 20.8778 55.0346L10.192 43.3419C10.3391 43.1779 10.5824 42.9271 10.9218 42.5895C11.2478 42.237 11.5849 41.9264 11.9332 41.6575C12.2973 41.3763 12.6408 41.1614 12.9639 41.0127C13.2893 40.8369 13.6077 40.7422 13.9191 40.7284C14.2305 40.7145 14.5416 40.7891 14.8525 40.952C15.1634 41.1148 15.4942 41.3882 15.845 41.772L19.0831 45.3153L23.6422 41.795L18.9064 36.613C19.0536 36.449 19.2968 36.1982 19.6363 35.8605C19.9622 35.5081 20.2994 35.1975 20.6476 34.9285C21.0117 34.6474 21.3553 34.4325 21.6784 34.2837C22.0038 34.108 22.3222 34.0132 22.6336 33.9994C22.945 33.9856 23.2561 34.0602 23.567 34.223C23.8778 34.3859 24.2086 34.6593 24.5594 35.0431L35.2453 46.7358Z" fill="#DBDBDB"/>
<path d="M34.1936 37.5557C33.4114 36.206 32.9349 34.9065 32.7643 33.6571C32.6117 32.399 32.712 31.2392 33.0652 30.1776C33.4264 29.09 34.0137 28.1138 34.8269 27.2491C35.6581 26.3755 36.6755 25.6441 37.8789 25.0549C39.0824 24.4656 40.3014 24.102 41.5358 23.964C42.7882 23.8173 44.0062 23.9095 45.1898 24.2408C46.3633 24.5547 47.4664 25.1253 48.4993 25.9524C49.55 26.7708 50.4665 27.8548 51.2488 29.2045C52.031 30.5543 52.5124 31.8624 52.6931 33.1291C52.8637 34.3784 52.7684 35.5469 52.4072 36.6345C52.0539 37.6961 51.4617 38.6636 50.6305 39.5371C49.7993 40.4107 48.773 41.1465 47.5515 41.7445C46.3301 42.3426 45.0932 42.715 43.8408 42.8618C42.5783 42.9912 41.3643 42.8859 40.1987 42.5458C39.0331 42.2058 37.9339 41.6222 36.9011 40.795C35.8683 39.9679 34.9658 38.8881 34.1936 37.5557ZM39.0434 35.181C39.956 36.7556 40.9703 37.7696 42.0862 38.2228C43.202 38.6761 44.3168 38.6301 45.4305 38.0847C46.5621 37.5306 47.2346 36.7015 47.4479 35.5974C47.6612 34.4933 47.3116 33.1539 46.399 31.5793C45.4964 30.0219 44.4871 29.0166 43.3713 28.5634C42.2733 28.1013 41.1586 28.1473 40.0269 28.7015C38.9133 29.2468 38.2408 30.0759 38.0095 31.1888C37.7862 32.2756 38.1308 33.6063 39.0434 35.181Z" fill="#DBDBDB"/>
<path d="M62.4712 35.8685C61.644 36.1037 60.9102 36.0528 60.2698 35.7156C59.6294 35.3785 59.172 34.8024 58.8977 33.9873L53.9507 19.2874C54.1496 19.1893 54.4703 19.0462 54.9128 18.858C55.349 18.6509 55.7787 18.4872 56.2019 18.3669C56.6444 18.2411 57.0419 18.1696 57.3945 18.1524C57.7599 18.1108 58.0867 18.1425 58.375 18.2475C58.6632 18.3524 58.9161 18.5402 59.1336 18.8106C59.3511 19.0811 59.5428 19.4627 59.7086 19.9556L63.4883 31.1866L70.0963 29.3077C70.3012 29.478 70.5219 29.7267 70.7585 30.0541C70.9888 30.3624 71.1677 30.7062 71.2953 31.0853C71.5504 31.8435 71.5687 32.4302 71.3501 32.8455C71.1252 33.2417 70.7434 33.5164 70.2047 33.6696L62.4712 35.8685Z" fill="#DBDBDB"/>
<path d="M74.2077 23.54C74.0208 21.9913 74.0941 20.5968 74.4278 19.3568C74.7814 18.1147 75.328 17.0539 76.0678 16.1744C76.8251 15.2731 77.7456 14.5561 78.8294 14.0234C79.9331 13.4887 81.1514 13.1534 82.4845 13.0174C83.8176 12.8814 85.0764 12.964 86.2608 13.2653C87.4652 13.5646 88.5443 14.0776 89.4981 14.8044C90.4496 15.5114 91.236 16.4362 91.8573 17.5788C92.4986 18.7194 92.9127 20.0641 93.0997 21.6128C93.2867 23.1616 93.2146 24.5659 92.8833 25.8258C92.5496 27.0659 92.0041 28.1366 91.2468 29.038C90.5071 29.9175 89.5853 30.6245 88.4817 31.1592C87.378 31.6939 86.1497 32.0303 84.7967 32.1683C83.4437 32.3063 82.1651 32.2257 80.9607 31.9264C79.754 31.6073 78.6836 31.0834 77.7496 30.3545C76.8157 29.6257 76.038 28.6899 75.4167 27.5473C74.7953 26.4047 74.3923 25.0689 74.2077 23.54ZM79.5799 22.992C79.798 24.7989 80.3291 26.1115 81.1732 26.9299C82.0172 27.7483 83.0561 28.0946 84.2897 27.9688C85.5432 27.8409 86.4841 27.2927 87.1124 26.3241C87.7407 25.3555 87.9457 23.9677 87.7276 22.1608C87.5118 20.3738 86.9819 19.0711 86.1379 18.2527C85.3137 17.4322 84.2749 17.086 83.0214 17.2138C81.7878 17.3397 80.8469 17.8879 80.1987 18.8585C79.568 19.8073 79.3617 21.1851 79.5799 22.992Z" fill="#DBDBDB"/>
<path d="M114.933 29.4954C114.869 30.1121 114.712 30.5601 114.462 30.8394C114.212 31.1186 113.834 31.3766 113.327 31.6134C113.031 31.7482 112.666 31.8769 112.231 31.9995C111.798 32.1022 111.328 32.1815 110.819 32.2375C110.309 32.3134 109.772 32.3568 109.208 32.3677C108.664 32.3804 108.123 32.3633 107.585 32.3163C106.15 32.191 104.825 31.8845 103.609 31.3969C102.394 30.8894 101.359 30.2068 100.503 29.3492C99.6689 28.4733 99.0434 27.4251 98.6268 26.2043C98.2102 24.9836 98.0821 23.5974 98.2425 22.0457C98.4111 20.4143 98.8471 19.0172 99.5503 17.8541C100.273 16.6928 101.154 15.756 102.193 15.0438C103.254 14.3134 104.422 13.8032 105.699 13.5132C106.995 13.225 108.301 13.1383 109.616 13.2531C111.508 13.4184 112.971 13.8573 114.003 14.5697C115.057 15.264 115.534 16.0986 115.433 17.0734C115.379 17.5906 115.204 18.0269 114.905 18.3823C114.607 18.7376 114.278 19.0099 113.916 19.1992C113.449 18.8573 112.851 18.514 112.123 18.1694C111.417 17.8066 110.595 17.5843 109.659 17.5025C107.985 17.3563 106.601 17.7171 105.506 18.585C104.431 19.4547 103.806 20.735 103.631 22.426C103.537 23.3411 103.584 24.1482 103.773 24.8472C103.984 25.5281 104.296 26.1073 104.709 26.585C105.124 27.0428 105.619 27.4073 106.194 27.6783C106.772 27.9294 107.399 28.0846 108.076 28.1438C108.515 28.1821 108.907 28.1762 109.254 28.1262C109.601 28.0762 109.869 28.0093 110.059 27.9255L110.349 25.1205L107.151 24.8412C107.054 24.6119 106.964 24.313 106.882 23.9444C106.819 23.5776 106.809 23.1953 106.85 22.7974C106.924 22.0812 107.137 21.5779 107.488 21.2875C107.86 20.9987 108.305 20.877 108.823 20.9223L113.874 21.3634C114.471 21.4156 114.912 21.6247 115.196 21.9908C115.502 22.3387 115.624 22.811 115.562 23.4078L114.933 29.4954Z" fill="#DBDBDB"/>
<path d="M125.385 29.0396L123.617 34.5216C123.387 34.5209 123.031 34.486 122.549 34.4169C122.087 34.3531 121.634 34.2608 121.19 34.1398C120.746 34.0189 120.363 33.8731 120.04 33.7023C119.731 33.5558 119.488 33.3654 119.311 33.131C119.154 32.9018 119.067 32.6192 119.049 32.2831C119.032 31.947 119.103 31.5315 119.262 31.0366L123.599 17.5885C123.728 17.1887 123.932 16.9131 124.212 16.7616C124.517 16.5962 124.884 16.4995 125.313 16.4714C126.043 16.4218 126.857 16.4676 127.756 16.609C128.661 16.7314 129.606 16.9267 130.59 17.1948C133.253 17.9203 135.082 19.0191 136.077 20.4912C137.071 21.9632 137.265 23.6415 136.657 25.5259C136.277 26.7061 135.643 27.6308 134.755 28.3001C133.868 28.9694 132.926 29.4168 131.929 29.6423C132.323 30.7643 132.726 31.8265 133.137 32.829C133.549 33.8315 133.84 34.7185 134.011 35.4898C133.603 36.1035 133.081 36.5202 132.443 36.7399C131.831 36.9458 131.206 36.962 130.57 36.7885C130.145 36.6729 129.794 36.5254 129.516 36.3461C129.238 36.1668 129.01 35.9599 128.834 35.7255C128.658 35.4911 128.513 35.2239 128.4 34.9239C128.287 34.6239 128.189 34.3074 128.108 33.9746L126.919 29.4576L125.385 29.0396ZM128.433 25.739C129.167 25.9388 129.804 25.9157 130.345 25.6697C130.892 25.4047 131.282 24.9105 131.516 24.1872C131.749 23.4638 131.683 22.8556 131.317 22.3625C130.977 21.8556 130.295 21.4629 129.272 21.1842C128.983 21.1054 128.748 21.0518 128.568 21.0235C128.389 20.9952 128.186 20.9712 127.962 20.9514L126.581 25.2343L128.433 25.739Z" fill="#DBDBDB"/>
<path d="M149.502 24.9743C149.907 24.9461 150.461 24.9997 151.163 25.135C151.884 25.2789 152.56 25.5012 153.192 25.8019C154.095 26.2316 154.816 26.7404 155.355 27.3283C155.922 27.9074 156.153 28.5143 156.047 29.1491C155.862 30.21 155.621 31.4319 155.323 32.8148C155.025 34.1977 154.703 35.6242 154.356 37.0942C154.019 38.5469 153.677 39.9865 153.332 41.4131C152.996 42.8223 152.694 44.0705 152.425 45.1579C152.071 45.2988 151.638 45.3358 151.126 45.269C150.605 45.2196 150.046 45.0531 149.45 44.7696C149.016 44.5634 148.666 44.3524 148.398 44.1366C148.148 43.9294 147.963 43.7088 147.843 43.4749C147.741 43.2495 147.691 42.9935 147.692 42.7068C147.711 42.4287 147.759 42.12 147.835 41.7808L148.363 39.7451L143.46 37.4122C143.021 37.8662 142.573 38.3377 142.114 38.8267C141.656 39.3156 141.207 39.7871 140.768 40.2411C140.466 40.208 140.156 40.1488 139.838 40.0636C139.527 40.0044 139.174 39.8803 138.776 39.6913C137.855 39.253 137.252 38.7784 136.968 38.2673C136.711 37.7474 136.735 37.2173 137.039 36.6771C137.176 36.4331 137.35 36.2063 137.559 35.9967C137.769 35.7871 138.012 35.5382 138.289 35.2501C138.68 34.8397 139.181 34.3375 139.79 33.7435C140.417 33.1581 141.092 32.5291 141.814 31.8563C142.546 31.1661 143.306 30.4671 144.094 29.7593C144.882 29.0514 145.622 28.3873 146.315 27.7668C147.018 27.1289 147.644 26.5652 148.195 26.0758C148.763 25.595 149.199 25.2278 149.502 24.9743ZM150.854 29.8931C150.189 30.5048 149.439 31.1864 148.604 31.9379C147.796 32.6806 147.006 33.4536 146.233 34.257L149.592 35.8552C149.869 34.7939 150.122 33.7543 150.352 32.7367C150.609 31.7102 150.831 30.7881 151.017 29.9705L150.854 29.8931Z" fill="#DBDBDB"/>
<path d="M167.924 51.2638C167.57 51.2715 167.179 51.2012 166.75 51.0528C166.351 50.9016 165.936 50.6635 165.504 50.3384C164.929 49.905 164.51 49.4767 164.247 49.0535C163.999 48.6423 163.966 48.2304 164.147 47.8178C164.872 46.1674 165.45 44.8309 165.881 43.8083C166.326 42.7708 166.741 41.8859 167.128 41.1536L167.008 41.0633C166.174 41.9077 165.416 42.6835 164.731 43.3907C164.076 44.0951 163.434 44.7844 162.806 45.4589C162.193 46.1454 161.558 46.8274 160.901 47.5047C160.259 48.1941 159.535 48.9461 158.728 49.7606C158.454 49.6788 158.129 49.5338 157.754 49.3258C157.365 49.1327 157.003 48.9097 156.667 48.6569C155.965 48.1272 155.507 47.6074 155.294 47.0975C155.097 46.5996 155.245 46.0746 155.738 45.5224L166.618 34.6291C166.919 34.5314 167.385 34.5332 168.016 34.6344C168.646 34.7355 169.353 35.0811 170.136 35.671C170.982 36.309 171.532 36.9354 171.785 37.5503C172.051 38.1503 172.049 38.8106 171.78 39.5313C171.604 39.9978 171.39 40.5226 171.137 41.1057C170.9 41.7007 170.642 42.3047 170.362 42.9176C170.098 43.5425 169.827 44.1614 169.547 44.7743C169.281 45.3722 169.038 45.9134 168.82 46.3977L168.94 46.488C170.441 45.5233 171.903 44.6034 173.325 43.7282C174.76 42.8381 175.99 42.118 177.015 41.5678C177.361 41.629 177.751 41.7607 178.185 41.963C178.648 42.1624 179.112 42.4366 179.575 42.7857C180.357 43.3756 180.896 43.9691 181.192 44.5661C181.5 45.1483 181.515 45.6709 181.235 46.134C181.033 46.4807 180.684 46.9915 180.189 47.6665C179.723 48.3385 179.183 49.0927 178.571 49.9289C177.958 50.7652 177.306 51.6462 176.614 52.572C175.921 53.4978 175.247 54.3877 174.592 55.2418C173.967 56.0929 173.378 56.8724 172.827 57.5801C172.289 58.2729 171.868 58.8043 171.565 59.1746C171.16 59.1192 170.779 59.0069 170.423 58.8379C170.068 58.6958 169.66 58.4502 169.197 58.1011C168.59 57.6436 168.165 57.1614 167.923 56.6544C167.681 56.1474 167.797 55.5983 168.271 55.0071C169.626 53.3081 170.867 51.7974 171.994 50.4749C173.136 49.1645 174.076 48.051 174.814 47.1343L174.694 47.044C174.015 47.5057 173.131 48.0624 172.042 48.7142C170.953 49.366 169.58 50.2159 167.924 51.2638Z" fill="#DBDBDB"/>
</svg>
