<svg width="147" height="88" viewBox="0 0 147 88" fill="none" xmlns="http://www.w3.org/2000/svg">
<path d="M23.0206 9.92C24.034 9.6 25.1806 9.33333 26.4606 9.12C27.794 8.90667 28.994 8.8 30.0606 8.8C31.2873 8.8 32.4606 8.93333 33.5806 9.2C34.754 9.41333 35.794 9.81333 36.7006 10.4C37.6073 10.9333 38.3273 11.68 38.8606 12.64C39.394 13.6 39.6606 14.8 39.6606 16.24V37.52H46.7806C47.1006 38.1067 47.4206 38.88 47.7406 39.84C48.0606 40.8 48.2206 41.8133 48.2206 42.88C48.2206 44.9067 47.7673 46.3467 46.8606 47.2C45.954 48.0533 44.8073 48.48 43.4206 48.48H39.6606V57.92C39.074 58.0267 38.194 58.16 37.0206 58.32C35.8473 58.5333 34.7273 58.64 33.6606 58.64C32.4873 58.64 31.4473 58.5867 30.5406 58.48C29.634 58.3733 28.8606 58.1333 28.2206 57.76C27.634 57.3333 27.1806 56.7467 26.8606 56C26.5406 55.2533 26.3806 54.24 26.3806 52.96V48.48H6.30063C5.07396 47.84 4.00729 46.9067 3.10063 45.68C2.24729 44.4 1.82063 42.8533 1.82063 41.04C1.82063 40.0267 1.95396 38.9067 2.22063 37.68C2.48729 36.4533 2.94063 35.3867 3.58063 34.48L23.0206 9.92ZM27.1006 22.48H26.8606L16.2206 37.52H27.1006V22.48ZM81.4375 33.68C81.4375 28.9867 80.7442 25.36 79.3575 22.8C78.0242 20.24 76.1042 18.96 73.5975 18.96C71.0908 18.96 69.1708 20.24 67.8375 22.8C66.5575 25.36 65.9175 28.9867 65.9175 33.68C65.9175 38.3733 66.5575 42.0267 67.8375 44.64C69.1708 47.2 71.0908 48.48 73.5975 48.48C76.1042 48.48 78.0242 47.2 79.3575 44.64C80.7442 42.0267 81.4375 38.3733 81.4375 33.68ZM95.1175 33.68C95.1175 37.7867 94.5842 41.44 93.5175 44.64C92.4508 47.84 90.9575 50.5333 89.0375 52.72C87.1708 54.8533 84.9042 56.48 82.2375 57.6C79.6242 58.72 76.7708 59.28 73.6775 59.28C70.5308 59.28 67.6242 58.72 64.9575 57.6C62.3442 56.48 60.0775 54.8533 58.1575 52.72C56.2908 50.5333 54.8242 47.84 53.7575 44.64C52.7442 41.44 52.2375 37.7867 52.2375 33.68C52.2375 29.5733 52.7442 25.9467 53.7575 22.8C54.8242 19.6 56.2908 16.9333 58.1575 14.8C60.0775 12.6133 62.3442 10.96 64.9575 9.84C67.6242 8.72 70.5308 8.16 73.6775 8.16C76.7708 8.16 79.6242 8.72 82.2375 9.84C84.9042 10.96 87.1708 12.6133 89.0375 14.8C90.9575 16.9333 92.4508 19.6 93.5175 22.8C94.5842 25.9467 95.1175 29.5733 95.1175 33.68ZM121.224 9.92C122.237 9.6 123.384 9.33333 124.664 9.12C125.997 8.90667 127.197 8.8 128.264 8.8C129.49 8.8 130.664 8.93333 131.784 9.2C132.957 9.41333 133.997 9.81333 134.904 10.4C135.81 10.9333 136.53 11.68 137.064 12.64C137.597 13.6 137.864 14.8 137.864 16.24V37.52H144.984C145.304 38.1067 145.624 38.88 145.944 39.84C146.264 40.8 146.424 41.8133 146.424 42.88C146.424 44.9067 145.97 46.3467 145.064 47.2C144.157 48.0533 143.01 48.48 141.624 48.48H137.864V57.92C137.277 58.0267 136.397 58.16 135.224 58.32C134.05 58.5333 132.93 58.64 131.864 58.64C130.69 58.64 129.65 58.5867 128.744 58.48C127.837 58.3733 127.064 58.1333 126.424 57.76C125.837 57.3333 125.384 56.7467 125.064 56C124.744 55.2533 124.584 54.24 124.584 52.96V48.48H104.504C103.277 47.84 102.21 46.9067 101.304 45.68C100.45 44.4 100.024 42.8533 100.024 41.04C100.024 40.0267 100.157 38.9067 100.424 37.68C100.69 36.4533 101.144 35.3867 101.784 34.48L121.224 9.92ZM125.304 22.48H125.064L114.424 37.52H125.304V22.48Z" fill="#DBDBDB"/>
<path d="M33.5 67L39.0844 79.3445C40.9198 83.4016 37.953 88 33.5 88V88C29.047 88 26.0802 83.4016 27.9156 79.3445L33.5 67Z" fill="#D9D9D9"/>
<path d="M35 74L37 78.5" stroke="white" stroke-linecap="round"/>
<path d="M131.5 67L137.084 79.3445C138.92 83.4016 135.953 88 131.5 88V88C127.047 88 124.08 83.4016 125.916 79.3445L131.5 67Z" fill="#D9D9D9"/>
<path d="M133 74L135 78.5" stroke="white" stroke-linecap="round"/>
</svg>
