<svg width="23" height="22" viewBox="0 0 23 22" fill="none" xmlns="http://www.w3.org/2000/svg">
<path fill-rule="evenodd" clip-rule="evenodd" d="M16.7383 6.35355C16.9336 6.15829 16.9336 5.84171 16.7383 5.64645C16.5431 5.45118 16.2265 5.45118 16.0312 5.64645L11.3848 10.2929L6.73832 5.64645C6.54306 5.45118 6.22647 5.45118 6.03121 5.64645C5.83595 5.84171 5.83595 6.15829 6.03121 6.35355L10.6777 11L6.03121 15.6464C5.83595 15.8417 5.83595 16.1583 6.03121 16.3536C6.22647 16.5488 6.54306 16.5488 6.73832 16.3536L11.3848 11.7071L16.0312 16.3536C16.2265 16.5488 16.5431 16.5488 16.7383 16.3536C16.9336 16.1583 16.9336 15.8417 16.7383 15.6464L12.0919 11L16.7383 6.35355Z" fill="#DBDBDB"/>
</svg>